<?xml version="1.0" encoding="UTF-8"?>
<svg width="33px" height="33px" viewBox="0 0 33 33" version="1.1" xmlns="http://www.w3.org/2000/svg" xmlns:xlink="http://www.w3.org/1999/xlink">
    <!-- Generator: Sketch 45.1 (43504) - http://www.bohemiancoding.com/sketch -->
    <title>email</title>
    <desc>Created with Sketch.</desc>
    <defs></defs>
    <g id="Page-1" stroke="none" stroke-width="1" fill="none" fill-rule="evenodd">
        <g id="Group" transform="translate(-185.000000, -624.000000)" fill-rule="nonzero" fill="#000000">
            <g id="email" transform="translate(185.000000, 623.982260)">
                <path d="M16.0842816,0 C7.20133938,0 0.000107231404,7.20144661 0.000107231404,16.0843889 C0.000107231404,24.9671166 7.20133938,32.1690994 16.0842816,32.1690994 C24.9672239,32.1690994 32.1689922,24.9671166 32.1689922,16.0843889 C32.1689922,7.20144661 24.9672239,0 16.0842816,0 Z M16.518973,7.61342966 L24.4593264,12.4964074 L8.57861953,12.4964074 L16.518973,7.61342966 Z M24.5491658,20.2753826 L24.5483607,20.2753826 C24.5483607,21.0585998 23.9047272,21.6932546 23.1106292,21.6932546 L9.90911961,21.6932546 C9.1149322,21.6932546 8.47138812,21.0585116 8.47138812,20.2753826 L8.47138812,12.7885911 C8.47138812,12.7057525 8.47997587,12.6252076 8.49393095,12.5460742 L16.0804872,17.2114132 C16.0897906,17.2171475 16.0997202,17.2210292 16.1092919,17.2263224 C16.119311,17.2317921 16.1295089,17.2370853 16.1397069,17.2421138 C16.1932908,17.2693738 16.248485,17.2913406 16.3049315,17.3057204 C16.3107461,17.3073084 16.3165607,17.3080142 16.3223753,17.3093375 C16.3842787,17.3237173 16.4469871,17.3327158 16.5096061,17.3327158 L16.5100533,17.3327158 C16.5105006,17.3327158 16.5109479,17.3327158 16.5109479,17.3327158 C16.5735669,17.3327158 16.6362753,17.323982 16.6981786,17.3093375 C16.7039932,17.3079259 16.7098078,17.3073084 16.7156225,17.3057204 C16.7719795,17.2913406 16.8269948,17.2693738 16.8808471,17.2421138 C16.891045,17.2370853 16.901243,17.2317921 16.911262,17.2263224 C16.9207443,17.2210292 16.9307633,17.2171475 16.9400667,17.2114132 L24.526623,12.5460742 C24.5405781,12.6252076 24.5491658,12.705576 24.5491658,12.7885911 L24.5491658,20.2753826 Z" id="Shape"></path>
            </g>
        </g>
    </g>
</svg>