<?xml version="1.0" encoding="UTF-8"?>
<svg width="622px" height="504px" viewBox="0 0 622 504" version="1.1" xmlns="http://www.w3.org/2000/svg" xmlns:xlink="http://www.w3.org/1999/xlink">
    <!-- Generator: Sketch 45.1 (43504) - http://www.bohemiancoding.com/sketch -->
    <title>UBIKEKLEKTIK_logo_black</title>
    <desc>Created with Sketch.</desc>
    <defs>
        <polygon id="path-1" points="0 610.131 766.214 610.131 766.214 0 0 0"></polygon>
    </defs>
    <g id="Page-1" stroke="none" stroke-width="1" fill="none" fill-rule="evenodd">
        <g id="UBIKEKLEKTIK_logo_black" transform="translate(-72.000000, -53.000000)">
            <path d="M445.6548,272.632 C419.7008,241.163 406.7158,202.206 406.7158,163.652 C407.1138,125.102 420.0978,86.539 446.0528,55.066 C471.6238,86.539 484.6158,125.102 485.0048,163.652 C485.0048,202.602 472.0218,241.163 445.6548,272.632 Z" id="Fill-1" fill="#0A0B09"></path>
            <path d="M445.6548,318.6603 C407.8968,350.9203 360.6858,367.0513 313.4678,367.0513 C261.5428,367.0513 209.5998,346.9893 169.8728,307.2463 C130.1388,267.5193 110.0678,215.5843 110.0678,163.2613 C110.4668,125.1013 121.0838,87.3323 142.3268,53.8873 L72.6998,53.8873 L72.6998,404.0373 L693.5148,404.0373 L693.5148,330.8583 C658.8988,355.2613 618.3728,367.0513 577.4518,367.0513 C530.6388,367.0513 483.8258,350.9203 445.6548,318.6603" id="Fill-3" fill="#0A0B09"></path>
            <path d="M485.0044,53.8869 C506.2414,87.3319 517.2644,125.4909 517.2644,163.6519 C517.2644,210.8659 501.1394,257.6849 468.8734,295.8389 C500.3424,321.8059 538.9114,334.7909 577.4514,334.7909 C619.1614,334.7909 660.8654,319.8389 693.5154,289.5469 L693.5154,53.8869 L485.0044,53.8869 Z" id="Fill-5" fill="#0A0B09"></path>
            <path d="M313.4673,334.7912 C352.4183,334.7912 391.3793,321.8062 422.8503,295.8392 C390.5903,257.6852 374.4503,210.4652 374.4503,163.6512 C374.8413,125.4912 385.4603,87.3322 406.7153,53.8872 L204.4903,53.8872 L182.4653,53.8872 C155.7083,85.3582 142.7233,124.3152 142.7233,163.2612 C142.3263,207.3252 159.2563,250.9842 192.6873,284.4412 C226.1293,317.8772 269.8033,334.7912 313.4673,334.7912" id="Fill-7" fill="#0A0B09"></path>
            <path d="M105.7886,530.297 C105.7886,532.474 105.6846,534.206 105.4796,535.503 C105.2736,536.8 104.9096,537.782 104.3896,538.457 C103.8756,539.131 103.1206,539.595 102.1396,539.851 C101.1506,540.113 99.8836,540.243 98.3346,540.243 C96.6726,540.243 95.3556,540.113 94.3756,539.851 C93.3876,539.595 92.6056,539.131 92.0356,538.457 C91.4746,537.782 91.0826,536.8 90.8766,535.503 C90.6636,534.206 90.5606,532.474 90.5606,530.297 L90.5606,431.951 L72.6996,431.951 L72.6996,530.297 C72.6996,535.995 73.0636,540.551 73.7836,543.971 C74.5116,547.389 75.8076,550.006 77.6726,551.817 C79.5316,553.627 82.0956,554.819 85.3636,555.39 C88.6216,555.958 92.8466,556.244 98.0226,556.244 C103.0926,556.244 107.2646,555.958 110.5276,555.39 C113.7916,554.819 116.3576,553.627 118.2176,551.817 C120.0826,550.006 121.3796,547.389 122.1066,543.971 C122.8246,540.551 123.1906,535.995 123.1906,530.297 L123.1906,431.951 L105.7886,431.951 L105.7886,530.297 Z" id="Fill-9" fill="#0A0B09"></path>
            <path d="M169.3306,468.4611 C169.3306,471.4671 168.8636,473.5371 167.9386,474.6761 C166.9986,475.8191 165.0846,476.3871 162.1846,476.3871 L154.1036,476.3871 L154.1036,447.4901 L161.7256,447.4901 C163.3786,447.4901 164.7216,447.6211 165.7556,447.8791 C166.7926,448.1391 167.5666,448.6341 168.0886,449.3541 C168.6026,450.0801 168.9466,451.0601 169.0976,452.3071 C169.2546,453.5511 169.3306,455.1021 169.3306,456.9671 L169.3306,468.4611 Z M169.3306,529.5211 C169.3306,531.5941 169.2266,533.2761 169.0226,534.5701 C168.8096,535.8671 168.4536,536.8521 167.9386,537.5221 C167.4166,538.1931 166.6636,538.6651 165.6816,538.9181 C164.6926,539.1791 163.3786,539.3091 161.7256,539.3091 L154.1036,539.3091 L154.1036,490.5271 L162.1846,490.5271 C165.2976,490.5271 167.2606,491.1721 168.0886,492.4661 C168.9206,493.7631 169.3306,496.1171 169.3306,499.5371 L169.3306,529.5211 Z M182.4596,436.2991 C180.5446,434.5451 177.9326,433.3781 174.6126,432.8081 C171.2986,432.2401 166.9986,431.9511 161.7256,431.9511 L136.2436,431.9511 L136.2436,554.6901 L161.7256,554.6901 C166.9986,554.6901 171.2986,554.4081 174.6126,553.8381 C177.9326,553.2701 180.5446,552.1031 182.4596,550.3401 C184.3816,548.5841 185.6686,546.0441 186.3486,542.7291 C187.0146,539.4121 187.3556,535.0141 187.3556,529.5211 L187.3556,503.5721 C187.3556,499.8451 187.0966,496.7951 186.5826,494.4111 C186.0596,492.0281 185.3116,490.0851 184.3246,488.5801 C183.3446,487.0861 182.1786,485.9701 180.8336,485.2401 C179.4816,484.5191 177.9806,483.9481 176.3216,483.5341 L176.3216,482.9141 C177.3626,482.8111 178.5276,482.4481 179.8176,481.8281 C181.1136,481.2031 182.3076,480.2711 183.3986,479.0281 C184.4826,477.7831 185.4156,476.1311 186.1896,474.0561 C186.9656,471.9821 187.3556,469.3441 187.3556,466.1301 L187.3556,456.9671 C187.3556,451.4791 187.0146,447.1001 186.3486,443.8391 C185.6686,440.5771 184.3816,438.0651 182.4596,436.2991 L182.4596,436.2991 Z" id="Fill-11" fill="#0A0B09"></path>
            <mask id="mask-2" fill="white">
                <use xlink:href="#path-1"></use>
            </mask>
            <g id="Clip-14"></g>
            <polygon id="Fill-13" fill="#0A0B09" mask="url(#mask-2)" points="199.784 554.69 217.647 554.69 217.647 431.952 199.784 431.952"></polygon>
            <polygon id="Fill-15" fill="#0A0B09" mask="url(#mask-2)" points="284.4526 431.9513 265.6596 431.9513 250.5846 478.4083 249.8086 478.4083 249.8086 432.1093 231.7896 432.1093 231.7896 554.6893 249.8086 554.6893 249.8086 490.2153 250.5846 490.2153 267.5256 554.6893 286.9426 554.6893 266.1256 482.9143"></polygon>
            <polygon id="Fill-16" fill="#0A0B09" mask="url(#mask-2)" points="312.7339 478.7208 329.3599 478.7208 329.3599 464.5798 312.7339 464.5798 312.7339 446.7118 329.8199 446.7118 329.8199 431.9508 294.8649 431.9508 294.8649 554.6898 329.9759 554.6898 329.9759 539.3088 312.7339 539.3088"></polygon>
            <polygon id="Fill-17" fill="#0A0B09" mask="url(#mask-2)" points="393.2036 431.9513 374.4106 431.9513 359.3346 478.4083 358.5586 478.4083 358.5586 432.1093 340.5406 432.1093 340.5406 554.6893 358.5586 554.6893 358.5586 490.2153 359.3346 490.2153 376.2756 554.6893 395.6936 554.6893 374.8686 482.9143"></polygon>
            <polygon id="Fill-18" fill="#0A0B09" mask="url(#mask-2)" points="421.4839 431.9513 403.6159 431.9513 403.6159 554.6893 439.8189 554.6893 439.8189 539.1523 421.4839 539.1523"></polygon>
            <polygon id="Fill-19" fill="#0A0B09" mask="url(#mask-2)" points="466.5415 478.7208 483.1605 478.7208 483.1605 464.5798 466.5415 464.5798 466.5415 446.7118 483.6195 446.7118 483.6195 431.9508 448.6735 431.9508 448.6735 554.6898 483.7775 554.6898 483.7775 539.3088 466.5415 539.3088"></polygon>
            <polygon id="Fill-20" fill="#0A0B09" mask="url(#mask-2)" points="547.0122 431.9513 528.2192 431.9513 513.1412 478.4083 512.3672 478.4083 512.3672 432.1093 494.3492 432.1093 494.3492 554.6893 512.3672 554.6893 512.3672 490.2153 513.1412 490.2153 530.0752 554.6893 549.5012 554.6893 528.6782 482.9143"></polygon>
            <polygon id="Fill-21" fill="#0A0B09" mask="url(#mask-2)" points="552.4517 446.8703 565.9697 446.8703 565.9697 554.6893 583.8307 554.6893 583.8307 446.8703 597.1937 446.8703 597.1937 431.9513 552.4517 431.9513"></polygon>
            <polygon id="Fill-22" fill="#0A0B09" mask="url(#mask-2)" points="606.364 554.69 624.225 554.69 624.225 431.952 606.364 431.952"></polygon>
            <polygon id="Fill-23" fill="#0A0B09" mask="url(#mask-2)" points="691.0317 431.9513 672.2307 431.9513 657.1627 478.4083 656.3857 478.4083 656.3857 432.1093 638.3617 432.1093 638.3617 554.6893 656.3857 554.6893 656.3857 490.2153 657.1627 490.2153 674.0967 554.6893 693.5147 554.6893 672.6977 482.9143"></polygon>
        </g>
    </g>
</svg>